# xmcd
#
# Track frame offsets:
#	150
#	18723
#	41057
#	57927
#	80487
#	97804
#	113200
#	136012
#	156838
#	176208
#	191157
#	213498
#	235573
#	251441
#
# Disc length: 3609 seconds
#
# Revision: 0
# Processed by: cddbd v1.5.2PL0 Copyright (c) Steve Scherf et al.
# Submitted via: EasyCDDAExtractor 15.3.0.1
#
DISCID=ba0e170e
DTITLE=Jerry Rivera - Mis Favoritas
DYEAR=2010
DGENRE=Latin
TTITLE0=Amores Como El Nuestro
TTITLE1=Cara De Niño
TTITLE2=Casi Un Hechizo
TTITLE3=Que Hay De Malo
TTITLE4=Cuenta Conmigo
TTITLE5=Suave
TTITLE6=Esa Niña
TTITLE7=Mi Libertad (Duo Con Voltio)
TTITLE8=Para Siempre
TTITLE9=Navegandote (Version Balada)
TTITLE10=Quiero (Cool Dance Mix)
TTITLE11=Y Se Escapo El Amor (Version Salsa)
TTITLE12=Vuela Muy Alto (Hakkos Radio Edit Remix)
TTITLE13=Boricua Siempre Sere (Duo Con La Sister)
EXTD=
EXTT0=
EXTT1=
EXTT2=
EXTT3=
EXTT4=
EXTT5=
EXTT6=
EXTT7=
EXTT8=
EXTT9=
EXTT10=
EXTT11=
EXTT12=
EXTT13=
PLAYORDER=
